# xmcd CD database file
#
# Track frame offsets:
#	150
#	18540
#	35900
#	54200
#	71647
#	85877
#	103345
#	122675
#	140280
#	155782
#	178290
#	202650
#
# Disc length: 3048 seconds
#
# Revision: 1
# Processed by: cddbd v1.5.1PL0 Copyright (c) Steve Scherf et al.
# Submitted via: CDex 1.51
#
DISCID=aa0be60c
DTITLE=SILVERTIDE - Show And Tell
DYEAR=2004
DGENRE=Hard Rock
TTITLE0=Ain't Comin' Home
TTITLE1=Devil's Daughter
TTITLE2=S.F.C.
TTITLE3=California Rain
TTITLE4=Blue Jeans
TTITLE5=Mary Jayne
TTITLE6=Heartstrong
TTITLE7=To See Where I Hide
TTITLE8=You Want It All
TTITLE9=Nothing Stays
TTITLE10=Foxhole J.C.
TTITLE11=Adult Child
EXTD=YEAR: 2004
EXTT0=
EXTT1=
EXTT2=
EXTT3=
EXTT4=
EXTT5=
EXTT6=
EXTT7=
EXTT8=
EXTT9=
EXTT10=
EXTT11=
PLAYORDER=
